<svg xmlns="http://www.w3.org/2000/svg" xmlns:xlink="http://www.w3.org/1999/xlink" width="592" height="569" viewBox="0 0 592 569">
  <defs>
    <clipPath id="clip-path">
      <rect width="247" height="224" fill="none"/>
    </clipPath>
  </defs>
  <g id="wireframe" transform="translate(-201 -238)">
    <g id="Group_3" data-name="Group 3" transform="translate(-203 -6)">
      <g id="Group_2" data-name="Group 2" transform="translate(-88 -8)">
        <g id="Repeat_Grid_1" data-name="Repeat Grid 1" transform="translate(837 252)" clip-path="url(#clip-path)">
          <g transform="translate(-960 -341)">
            <circle id="Ellipse_14" data-name="Ellipse 14" cx="6.5" cy="6.5" r="6.5" transform="translate(960 341)" fill="#a2a2a2"/>
          </g>
          <g transform="translate(-942 -341)">
            <circle id="Ellipse_14-2" data-name="Ellipse 14" cx="6.5" cy="6.5" r="6.5" transform="translate(960 341)" fill="#a2a2a2"/>
          </g>
          <g transform="translate(-924 -341)">
            <circle id="Ellipse_14-3" data-name="Ellipse 14" cx="6.5" cy="6.5" r="6.5" transform="translate(960 341)" fill="#a2a2a2"/>
          </g>
          <g transform="translate(-906 -341)">
            <circle id="Ellipse_14-4" data-name="Ellipse 14" cx="6.5" cy="6.5" r="6.5" transform="translate(960 341)" fill="#a2a2a2"/>
          </g>
          <g transform="translate(-888 -341)">
            <circle id="Ellipse_14-5" data-name="Ellipse 14" cx="6.5" cy="6.5" r="6.5" transform="translate(960 341)" fill="#a2a2a2"/>
          </g>
          <g transform="translate(-870 -341)">
            <circle id="Ellipse_14-6" data-name="Ellipse 14" cx="6.5" cy="6.5" r="6.5" transform="translate(960 341)" fill="#a2a2a2"/>
          </g>
          <g transform="translate(-852 -341)">
            <circle id="Ellipse_14-7" data-name="Ellipse 14" cx="6.5" cy="6.5" r="6.5" transform="translate(960 341)" fill="#a2a2a2"/>
          </g>
          <g transform="translate(-834 -341)">
            <circle id="Ellipse_14-8" data-name="Ellipse 14" cx="6.5" cy="6.5" r="6.5" transform="translate(960 341)" fill="#a2a2a2"/>
          </g>
          <g transform="translate(-816 -341)">
            <circle id="Ellipse_14-9" data-name="Ellipse 14" cx="6.5" cy="6.5" r="6.5" transform="translate(960 341)" fill="#a2a2a2"/>
          </g>
          <g transform="translate(-798 -341)">
            <circle id="Ellipse_14-10" data-name="Ellipse 14" cx="6.5" cy="6.5" r="6.5" transform="translate(960 341)" fill="#a2a2a2"/>
          </g>
          <g transform="translate(-780 -341)">
            <circle id="Ellipse_14-11" data-name="Ellipse 14" cx="6.5" cy="6.5" r="6.5" transform="translate(960 341)" fill="#a2a2a2"/>
          </g>
          <g transform="translate(-762 -341)">
            <circle id="Ellipse_14-12" data-name="Ellipse 14" cx="6.5" cy="6.5" r="6.5" transform="translate(960 341)" fill="#a2a2a2"/>
          </g>
          <g transform="translate(-744 -341)">
            <circle id="Ellipse_14-13" data-name="Ellipse 14" cx="6.5" cy="6.5" r="6.5" transform="translate(960 341)" fill="#a2a2a2"/>
          </g>
          <g transform="translate(-726 -341)">
            <circle id="Ellipse_14-14" data-name="Ellipse 14" cx="6.5" cy="6.5" r="6.5" transform="translate(960 341)" fill="#a2a2a2"/>
          </g>
          <g transform="translate(-960 -326)">
            <circle id="Ellipse_14-15" data-name="Ellipse 14" cx="6.5" cy="6.5" r="6.5" transform="translate(960 341)" fill="#a2a2a2"/>
          </g>
          <g transform="translate(-942 -326)">
            <circle id="Ellipse_14-16" data-name="Ellipse 14" cx="6.5" cy="6.5" r="6.5" transform="translate(960 341)" fill="#a2a2a2"/>
          </g>
          <g transform="translate(-924 -326)">
            <circle id="Ellipse_14-17" data-name="Ellipse 14" cx="6.5" cy="6.5" r="6.5" transform="translate(960 341)" fill="#a2a2a2"/>
          </g>
          <g transform="translate(-906 -326)">
            <circle id="Ellipse_14-18" data-name="Ellipse 14" cx="6.5" cy="6.5" r="6.5" transform="translate(960 341)" fill="#a2a2a2"/>
          </g>
          <g transform="translate(-888 -326)">
            <circle id="Ellipse_14-19" data-name="Ellipse 14" cx="6.5" cy="6.5" r="6.5" transform="translate(960 341)" fill="#a2a2a2"/>
          </g>
          <g transform="translate(-870 -326)">
            <circle id="Ellipse_14-20" data-name="Ellipse 14" cx="6.5" cy="6.5" r="6.5" transform="translate(960 341)" fill="#a2a2a2"/>
          </g>
          <g transform="translate(-852 -326)">
            <circle id="Ellipse_14-21" data-name="Ellipse 14" cx="6.5" cy="6.5" r="6.5" transform="translate(960 341)" fill="#a2a2a2"/>
          </g>
          <g transform="translate(-834 -326)">
            <circle id="Ellipse_14-22" data-name="Ellipse 14" cx="6.5" cy="6.5" r="6.5" transform="translate(960 341)" fill="#a2a2a2"/>
          </g>
          <g transform="translate(-816 -326)">
            <circle id="Ellipse_14-23" data-name="Ellipse 14" cx="6.5" cy="6.5" r="6.5" transform="translate(960 341)" fill="#a2a2a2"/>
          </g>
          <g transform="translate(-798 -326)">
            <circle id="Ellipse_14-24" data-name="Ellipse 14" cx="6.5" cy="6.5" r="6.5" transform="translate(960 341)" fill="#a2a2a2"/>
          </g>
          <g transform="translate(-780 -326)">
            <circle id="Ellipse_14-25" data-name="Ellipse 14" cx="6.5" cy="6.5" r="6.5" transform="translate(960 341)" fill="#a2a2a2"/>
          </g>
          <g transform="translate(-762 -326)">
            <circle id="Ellipse_14-26" data-name="Ellipse 14" cx="6.5" cy="6.5" r="6.5" transform="translate(960 341)" fill="#a2a2a2"/>
          </g>
          <g transform="translate(-744 -326)">
            <circle id="Ellipse_14-27" data-name="Ellipse 14" cx="6.5" cy="6.5" r="6.5" transform="translate(960 341)" fill="#a2a2a2"/>
          </g>
          <g transform="translate(-726 -326)">
            <circle id="Ellipse_14-28" data-name="Ellipse 14" cx="6.5" cy="6.5" r="6.5" transform="translate(960 341)" fill="#a2a2a2"/>
          </g>
          <g transform="translate(-960 -311)">
            <circle id="Ellipse_14-29" data-name="Ellipse 14" cx="6.5" cy="6.5" r="6.5" transform="translate(960 341)" fill="#a2a2a2"/>
          </g>
          <g transform="translate(-942 -311)">
            <circle id="Ellipse_14-30" data-name="Ellipse 14" cx="6.5" cy="6.5" r="6.5" transform="translate(960 341)" fill="#a2a2a2"/>
          </g>
          <g transform="translate(-924 -311)">
            <circle id="Ellipse_14-31" data-name="Ellipse 14" cx="6.5" cy="6.5" r="6.5" transform="translate(960 341)" fill="#a2a2a2"/>
          </g>
          <g transform="translate(-906 -311)">
            <circle id="Ellipse_14-32" data-name="Ellipse 14" cx="6.5" cy="6.5" r="6.5" transform="translate(960 341)" fill="#a2a2a2"/>
          </g>
          <g transform="translate(-888 -311)">
            <circle id="Ellipse_14-33" data-name="Ellipse 14" cx="6.5" cy="6.5" r="6.5" transform="translate(960 341)" fill="#a2a2a2"/>
          </g>
          <g transform="translate(-870 -311)">
            <circle id="Ellipse_14-34" data-name="Ellipse 14" cx="6.5" cy="6.5" r="6.5" transform="translate(960 341)" fill="#a2a2a2"/>
          </g>
          <g transform="translate(-852 -311)">
            <circle id="Ellipse_14-35" data-name="Ellipse 14" cx="6.5" cy="6.5" r="6.5" transform="translate(960 341)" fill="#a2a2a2"/>
          </g>
          <g transform="translate(-834 -311)">
            <circle id="Ellipse_14-36" data-name="Ellipse 14" cx="6.5" cy="6.5" r="6.5" transform="translate(960 341)" fill="#a2a2a2"/>
          </g>
          <g transform="translate(-816 -311)">
            <circle id="Ellipse_14-37" data-name="Ellipse 14" cx="6.5" cy="6.5" r="6.5" transform="translate(960 341)" fill="#a2a2a2"/>
          </g>
          <g transform="translate(-798 -311)">
            <circle id="Ellipse_14-38" data-name="Ellipse 14" cx="6.5" cy="6.5" r="6.5" transform="translate(960 341)" fill="#a2a2a2"/>
          </g>
          <g transform="translate(-780 -311)">
            <circle id="Ellipse_14-39" data-name="Ellipse 14" cx="6.5" cy="6.5" r="6.5" transform="translate(960 341)" fill="#a2a2a2"/>
          </g>
          <g transform="translate(-762 -311)">
            <circle id="Ellipse_14-40" data-name="Ellipse 14" cx="6.5" cy="6.5" r="6.5" transform="translate(960 341)" fill="#a2a2a2"/>
          </g>
          <g transform="translate(-744 -311)">
            <circle id="Ellipse_14-41" data-name="Ellipse 14" cx="6.5" cy="6.5" r="6.5" transform="translate(960 341)" fill="#a2a2a2"/>
          </g>
          <g transform="translate(-726 -311)">
            <circle id="Ellipse_14-42" data-name="Ellipse 14" cx="6.5" cy="6.5" r="6.5" transform="translate(960 341)" fill="#a2a2a2"/>
          </g>
          <g transform="translate(-960 -296)">
            <circle id="Ellipse_14-43" data-name="Ellipse 14" cx="6.5" cy="6.5" r="6.5" transform="translate(960 341)" fill="#a2a2a2"/>
          </g>
          <g transform="translate(-942 -296)">
            <circle id="Ellipse_14-44" data-name="Ellipse 14" cx="6.5" cy="6.5" r="6.5" transform="translate(960 341)" fill="#a2a2a2"/>
          </g>
          <g transform="translate(-924 -296)">
            <circle id="Ellipse_14-45" data-name="Ellipse 14" cx="6.5" cy="6.5" r="6.5" transform="translate(960 341)" fill="#a2a2a2"/>
          </g>
          <g transform="translate(-906 -296)">
            <circle id="Ellipse_14-46" data-name="Ellipse 14" cx="6.5" cy="6.5" r="6.5" transform="translate(960 341)" fill="#a2a2a2"/>
          </g>
          <g transform="translate(-888 -296)">
            <circle id="Ellipse_14-47" data-name="Ellipse 14" cx="6.5" cy="6.5" r="6.5" transform="translate(960 341)" fill="#a2a2a2"/>
          </g>
          <g transform="translate(-870 -296)">
            <circle id="Ellipse_14-48" data-name="Ellipse 14" cx="6.5" cy="6.5" r="6.5" transform="translate(960 341)" fill="#a2a2a2"/>
          </g>
          <g transform="translate(-852 -296)">
            <circle id="Ellipse_14-49" data-name="Ellipse 14" cx="6.5" cy="6.5" r="6.5" transform="translate(960 341)" fill="#a2a2a2"/>
          </g>
          <g transform="translate(-834 -296)">
            <circle id="Ellipse_14-50" data-name="Ellipse 14" cx="6.5" cy="6.5" r="6.5" transform="translate(960 341)" fill="#a2a2a2"/>
          </g>
          <g transform="translate(-816 -296)">
            <circle id="Ellipse_14-51" data-name="Ellipse 14" cx="6.5" cy="6.5" r="6.5" transform="translate(960 341)" fill="#a2a2a2"/>
          </g>
          <g transform="translate(-798 -296)">
            <circle id="Ellipse_14-52" data-name="Ellipse 14" cx="6.5" cy="6.5" r="6.5" transform="translate(960 341)" fill="#a2a2a2"/>
          </g>
          <g transform="translate(-780 -296)">
            <circle id="Ellipse_14-53" data-name="Ellipse 14" cx="6.5" cy="6.5" r="6.5" transform="translate(960 341)" fill="#a2a2a2"/>
          </g>
          <g transform="translate(-762 -296)">
            <circle id="Ellipse_14-54" data-name="Ellipse 14" cx="6.5" cy="6.5" r="6.5" transform="translate(960 341)" fill="#a2a2a2"/>
          </g>
          <g transform="translate(-744 -296)">
            <circle id="Ellipse_14-55" data-name="Ellipse 14" cx="6.5" cy="6.5" r="6.5" transform="translate(960 341)" fill="#a2a2a2"/>
          </g>
          <g transform="translate(-726 -296)">
            <circle id="Ellipse_14-56" data-name="Ellipse 14" cx="6.5" cy="6.5" r="6.5" transform="translate(960 341)" fill="#a2a2a2"/>
          </g>
          <g transform="translate(-960 -281)">
            <circle id="Ellipse_14-57" data-name="Ellipse 14" cx="6.5" cy="6.5" r="6.5" transform="translate(960 341)" fill="#a2a2a2"/>
          </g>
          <g transform="translate(-942 -281)">
            <circle id="Ellipse_14-58" data-name="Ellipse 14" cx="6.5" cy="6.5" r="6.5" transform="translate(960 341)" fill="#a2a2a2"/>
          </g>
          <g transform="translate(-924 -281)">
            <circle id="Ellipse_14-59" data-name="Ellipse 14" cx="6.5" cy="6.5" r="6.5" transform="translate(960 341)" fill="#a2a2a2"/>
          </g>
          <g transform="translate(-906 -281)">
            <circle id="Ellipse_14-60" data-name="Ellipse 14" cx="6.5" cy="6.5" r="6.5" transform="translate(960 341)" fill="#a2a2a2"/>
          </g>
          <g transform="translate(-888 -281)">
            <circle id="Ellipse_14-61" data-name="Ellipse 14" cx="6.5" cy="6.5" r="6.5" transform="translate(960 341)" fill="#a2a2a2"/>
          </g>
          <g transform="translate(-870 -281)">
            <circle id="Ellipse_14-62" data-name="Ellipse 14" cx="6.5" cy="6.5" r="6.5" transform="translate(960 341)" fill="#a2a2a2"/>
          </g>
          <g transform="translate(-852 -281)">
            <circle id="Ellipse_14-63" data-name="Ellipse 14" cx="6.5" cy="6.5" r="6.5" transform="translate(960 341)" fill="#a2a2a2"/>
          </g>
          <g transform="translate(-834 -281)">
            <circle id="Ellipse_14-64" data-name="Ellipse 14" cx="6.5" cy="6.5" r="6.5" transform="translate(960 341)" fill="#a2a2a2"/>
          </g>
          <g transform="translate(-816 -281)">
            <circle id="Ellipse_14-65" data-name="Ellipse 14" cx="6.5" cy="6.5" r="6.5" transform="translate(960 341)" fill="#a2a2a2"/>
          </g>
          <g transform="translate(-798 -281)">
            <circle id="Ellipse_14-66" data-name="Ellipse 14" cx="6.5" cy="6.5" r="6.5" transform="translate(960 341)" fill="#a2a2a2"/>
          </g>
          <g transform="translate(-780 -281)">
            <circle id="Ellipse_14-67" data-name="Ellipse 14" cx="6.5" cy="6.5" r="6.5" transform="translate(960 341)" fill="#a2a2a2"/>
          </g>
          <g transform="translate(-762 -281)">
            <circle id="Ellipse_14-68" data-name="Ellipse 14" cx="6.5" cy="6.5" r="6.5" transform="translate(960 341)" fill="#a2a2a2"/>
          </g>
          <g transform="translate(-744 -281)">
            <circle id="Ellipse_14-69" data-name="Ellipse 14" cx="6.5" cy="6.5" r="6.5" transform="translate(960 341)" fill="#a2a2a2"/>
          </g>
          <g transform="translate(-726 -281)">
            <circle id="Ellipse_14-70" data-name="Ellipse 14" cx="6.5" cy="6.5" r="6.5" transform="translate(960 341)" fill="#a2a2a2"/>
          </g>
          <g transform="translate(-960 -266)">
            <circle id="Ellipse_14-71" data-name="Ellipse 14" cx="6.5" cy="6.5" r="6.5" transform="translate(960 341)" fill="#a2a2a2"/>
          </g>
          <g transform="translate(-942 -266)">
            <circle id="Ellipse_14-72" data-name="Ellipse 14" cx="6.5" cy="6.5" r="6.5" transform="translate(960 341)" fill="#a2a2a2"/>
          </g>
          <g transform="translate(-924 -266)">
            <circle id="Ellipse_14-73" data-name="Ellipse 14" cx="6.5" cy="6.5" r="6.5" transform="translate(960 341)" fill="#a2a2a2"/>
          </g>
          <g transform="translate(-906 -266)">
            <circle id="Ellipse_14-74" data-name="Ellipse 14" cx="6.5" cy="6.5" r="6.5" transform="translate(960 341)" fill="#a2a2a2"/>
          </g>
          <g transform="translate(-888 -266)">
            <circle id="Ellipse_14-75" data-name="Ellipse 14" cx="6.5" cy="6.5" r="6.5" transform="translate(960 341)" fill="#a2a2a2"/>
          </g>
          <g transform="translate(-870 -266)">
            <circle id="Ellipse_14-76" data-name="Ellipse 14" cx="6.5" cy="6.5" r="6.5" transform="translate(960 341)" fill="#a2a2a2"/>
          </g>
          <g transform="translate(-852 -266)">
            <circle id="Ellipse_14-77" data-name="Ellipse 14" cx="6.5" cy="6.5" r="6.5" transform="translate(960 341)" fill="#a2a2a2"/>
          </g>
          <g transform="translate(-834 -266)">
            <circle id="Ellipse_14-78" data-name="Ellipse 14" cx="6.5" cy="6.5" r="6.5" transform="translate(960 341)" fill="#a2a2a2"/>
          </g>
          <g transform="translate(-816 -266)">
            <circle id="Ellipse_14-79" data-name="Ellipse 14" cx="6.5" cy="6.5" r="6.5" transform="translate(960 341)" fill="#a2a2a2"/>
          </g>
          <g transform="translate(-798 -266)">
            <circle id="Ellipse_14-80" data-name="Ellipse 14" cx="6.5" cy="6.5" r="6.5" transform="translate(960 341)" fill="#a2a2a2"/>
          </g>
          <g transform="translate(-780 -266)">
            <circle id="Ellipse_14-81" data-name="Ellipse 14" cx="6.5" cy="6.5" r="6.5" transform="translate(960 341)" fill="#a2a2a2"/>
          </g>
          <g transform="translate(-762 -266)">
            <circle id="Ellipse_14-82" data-name="Ellipse 14" cx="6.5" cy="6.5" r="6.5" transform="translate(960 341)" fill="#a2a2a2"/>
          </g>
          <g transform="translate(-744 -266)">
            <circle id="Ellipse_14-83" data-name="Ellipse 14" cx="6.5" cy="6.5" r="6.5" transform="translate(960 341)" fill="#a2a2a2"/>
          </g>
          <g transform="translate(-726 -266)">
            <circle id="Ellipse_14-84" data-name="Ellipse 14" cx="6.5" cy="6.5" r="6.5" transform="translate(960 341)" fill="#a2a2a2"/>
          </g>
          <g transform="translate(-960 -251)">
            <circle id="Ellipse_14-85" data-name="Ellipse 14" cx="6.5" cy="6.5" r="6.5" transform="translate(960 341)" fill="#a2a2a2"/>
          </g>
          <g transform="translate(-942 -251)">
            <circle id="Ellipse_14-86" data-name="Ellipse 14" cx="6.5" cy="6.5" r="6.5" transform="translate(960 341)" fill="#a2a2a2"/>
          </g>
          <g transform="translate(-924 -251)">
            <circle id="Ellipse_14-87" data-name="Ellipse 14" cx="6.5" cy="6.5" r="6.5" transform="translate(960 341)" fill="#a2a2a2"/>
          </g>
          <g transform="translate(-906 -251)">
            <circle id="Ellipse_14-88" data-name="Ellipse 14" cx="6.5" cy="6.5" r="6.5" transform="translate(960 341)" fill="#a2a2a2"/>
          </g>
          <g transform="translate(-888 -251)">
            <circle id="Ellipse_14-89" data-name="Ellipse 14" cx="6.5" cy="6.5" r="6.5" transform="translate(960 341)" fill="#a2a2a2"/>
          </g>
          <g transform="translate(-870 -251)">
            <circle id="Ellipse_14-90" data-name="Ellipse 14" cx="6.5" cy="6.5" r="6.5" transform="translate(960 341)" fill="#a2a2a2"/>
          </g>
          <g transform="translate(-852 -251)">
            <circle id="Ellipse_14-91" data-name="Ellipse 14" cx="6.5" cy="6.5" r="6.5" transform="translate(960 341)" fill="#a2a2a2"/>
          </g>
          <g transform="translate(-834 -251)">
            <circle id="Ellipse_14-92" data-name="Ellipse 14" cx="6.5" cy="6.5" r="6.5" transform="translate(960 341)" fill="#a2a2a2"/>
          </g>
          <g transform="translate(-816 -251)">
            <circle id="Ellipse_14-93" data-name="Ellipse 14" cx="6.5" cy="6.5" r="6.5" transform="translate(960 341)" fill="#a2a2a2"/>
          </g>
          <g transform="translate(-798 -251)">
            <circle id="Ellipse_14-94" data-name="Ellipse 14" cx="6.5" cy="6.5" r="6.5" transform="translate(960 341)" fill="#a2a2a2"/>
          </g>
          <g transform="translate(-780 -251)">
            <circle id="Ellipse_14-95" data-name="Ellipse 14" cx="6.5" cy="6.5" r="6.5" transform="translate(960 341)" fill="#a2a2a2"/>
          </g>
          <g transform="translate(-762 -251)">
            <circle id="Ellipse_14-96" data-name="Ellipse 14" cx="6.5" cy="6.5" r="6.5" transform="translate(960 341)" fill="#a2a2a2"/>
          </g>
          <g transform="translate(-744 -251)">
            <circle id="Ellipse_14-97" data-name="Ellipse 14" cx="6.5" cy="6.5" r="6.5" transform="translate(960 341)" fill="#a2a2a2"/>
          </g>
          <g transform="translate(-726 -251)">
            <circle id="Ellipse_14-98" data-name="Ellipse 14" cx="6.5" cy="6.5" r="6.5" transform="translate(960 341)" fill="#a2a2a2"/>
          </g>
          <g transform="translate(-960 -236)">
            <circle id="Ellipse_14-99" data-name="Ellipse 14" cx="6.5" cy="6.5" r="6.5" transform="translate(960 341)" fill="#a2a2a2"/>
          </g>
          <g transform="translate(-942 -236)">
            <circle id="Ellipse_14-100" data-name="Ellipse 14" cx="6.5" cy="6.5" r="6.5" transform="translate(960 341)" fill="#a2a2a2"/>
          </g>
          <g transform="translate(-924 -236)">
            <circle id="Ellipse_14-101" data-name="Ellipse 14" cx="6.5" cy="6.5" r="6.5" transform="translate(960 341)" fill="#a2a2a2"/>
          </g>
          <g transform="translate(-906 -236)">
            <circle id="Ellipse_14-102" data-name="Ellipse 14" cx="6.5" cy="6.5" r="6.5" transform="translate(960 341)" fill="#a2a2a2"/>
          </g>
          <g transform="translate(-888 -236)">
            <circle id="Ellipse_14-103" data-name="Ellipse 14" cx="6.5" cy="6.5" r="6.5" transform="translate(960 341)" fill="#a2a2a2"/>
          </g>
          <g transform="translate(-870 -236)">
            <circle id="Ellipse_14-104" data-name="Ellipse 14" cx="6.5" cy="6.5" r="6.5" transform="translate(960 341)" fill="#a2a2a2"/>
          </g>
          <g transform="translate(-852 -236)">
            <circle id="Ellipse_14-105" data-name="Ellipse 14" cx="6.5" cy="6.5" r="6.5" transform="translate(960 341)" fill="#a2a2a2"/>
          </g>
          <g transform="translate(-834 -236)">
            <circle id="Ellipse_14-106" data-name="Ellipse 14" cx="6.5" cy="6.5" r="6.5" transform="translate(960 341)" fill="#a2a2a2"/>
          </g>
          <g transform="translate(-816 -236)">
            <circle id="Ellipse_14-107" data-name="Ellipse 14" cx="6.5" cy="6.5" r="6.5" transform="translate(960 341)" fill="#a2a2a2"/>
          </g>
          <g transform="translate(-798 -236)">
            <circle id="Ellipse_14-108" data-name="Ellipse 14" cx="6.5" cy="6.5" r="6.5" transform="translate(960 341)" fill="#a2a2a2"/>
          </g>
          <g transform="translate(-780 -236)">
            <circle id="Ellipse_14-109" data-name="Ellipse 14" cx="6.5" cy="6.5" r="6.5" transform="translate(960 341)" fill="#a2a2a2"/>
          </g>
          <g transform="translate(-762 -236)">
            <circle id="Ellipse_14-110" data-name="Ellipse 14" cx="6.5" cy="6.5" r="6.5" transform="translate(960 341)" fill="#a2a2a2"/>
          </g>
          <g transform="translate(-744 -236)">
            <circle id="Ellipse_14-111" data-name="Ellipse 14" cx="6.5" cy="6.5" r="6.5" transform="translate(960 341)" fill="#a2a2a2"/>
          </g>
          <g transform="translate(-726 -236)">
            <circle id="Ellipse_14-112" data-name="Ellipse 14" cx="6.5" cy="6.5" r="6.5" transform="translate(960 341)" fill="#a2a2a2"/>
          </g>
          <g transform="translate(-960 -221)">
            <circle id="Ellipse_14-113" data-name="Ellipse 14" cx="6.5" cy="6.5" r="6.5" transform="translate(960 341)" fill="#a2a2a2"/>
          </g>
          <g transform="translate(-942 -221)">
            <circle id="Ellipse_14-114" data-name="Ellipse 14" cx="6.5" cy="6.5" r="6.5" transform="translate(960 341)" fill="#a2a2a2"/>
          </g>
          <g transform="translate(-924 -221)">
            <circle id="Ellipse_14-115" data-name="Ellipse 14" cx="6.5" cy="6.5" r="6.5" transform="translate(960 341)" fill="#a2a2a2"/>
          </g>
          <g transform="translate(-906 -221)">
            <circle id="Ellipse_14-116" data-name="Ellipse 14" cx="6.5" cy="6.5" r="6.5" transform="translate(960 341)" fill="#a2a2a2"/>
          </g>
          <g transform="translate(-888 -221)">
            <circle id="Ellipse_14-117" data-name="Ellipse 14" cx="6.5" cy="6.5" r="6.5" transform="translate(960 341)" fill="#a2a2a2"/>
          </g>
          <g transform="translate(-870 -221)">
            <circle id="Ellipse_14-118" data-name="Ellipse 14" cx="6.5" cy="6.5" r="6.5" transform="translate(960 341)" fill="#a2a2a2"/>
          </g>
          <g transform="translate(-852 -221)">
            <circle id="Ellipse_14-119" data-name="Ellipse 14" cx="6.5" cy="6.5" r="6.5" transform="translate(960 341)" fill="#a2a2a2"/>
          </g>
          <g transform="translate(-834 -221)">
            <circle id="Ellipse_14-120" data-name="Ellipse 14" cx="6.5" cy="6.5" r="6.5" transform="translate(960 341)" fill="#a2a2a2"/>
          </g>
          <g transform="translate(-816 -221)">
            <circle id="Ellipse_14-121" data-name="Ellipse 14" cx="6.5" cy="6.5" r="6.5" transform="translate(960 341)" fill="#a2a2a2"/>
          </g>
          <g transform="translate(-798 -221)">
            <circle id="Ellipse_14-122" data-name="Ellipse 14" cx="6.5" cy="6.5" r="6.5" transform="translate(960 341)" fill="#a2a2a2"/>
          </g>
          <g transform="translate(-780 -221)">
            <circle id="Ellipse_14-123" data-name="Ellipse 14" cx="6.5" cy="6.5" r="6.5" transform="translate(960 341)" fill="#a2a2a2"/>
          </g>
          <g transform="translate(-762 -221)">
            <circle id="Ellipse_14-124" data-name="Ellipse 14" cx="6.5" cy="6.5" r="6.5" transform="translate(960 341)" fill="#a2a2a2"/>
          </g>
          <g transform="translate(-744 -221)">
            <circle id="Ellipse_14-125" data-name="Ellipse 14" cx="6.5" cy="6.5" r="6.5" transform="translate(960 341)" fill="#a2a2a2"/>
          </g>
          <g transform="translate(-726 -221)">
            <circle id="Ellipse_14-126" data-name="Ellipse 14" cx="6.5" cy="6.5" r="6.5" transform="translate(960 341)" fill="#a2a2a2"/>
          </g>
          <g transform="translate(-960 -206)">
            <circle id="Ellipse_14-127" data-name="Ellipse 14" cx="6.5" cy="6.5" r="6.5" transform="translate(960 341)" fill="#a2a2a2"/>
          </g>
          <g transform="translate(-942 -206)">
            <circle id="Ellipse_14-128" data-name="Ellipse 14" cx="6.5" cy="6.5" r="6.5" transform="translate(960 341)" fill="#a2a2a2"/>
          </g>
          <g transform="translate(-924 -206)">
            <circle id="Ellipse_14-129" data-name="Ellipse 14" cx="6.5" cy="6.5" r="6.5" transform="translate(960 341)" fill="#a2a2a2"/>
          </g>
          <g transform="translate(-906 -206)">
            <circle id="Ellipse_14-130" data-name="Ellipse 14" cx="6.5" cy="6.5" r="6.5" transform="translate(960 341)" fill="#a2a2a2"/>
          </g>
          <g transform="translate(-888 -206)">
            <circle id="Ellipse_14-131" data-name="Ellipse 14" cx="6.5" cy="6.5" r="6.5" transform="translate(960 341)" fill="#a2a2a2"/>
          </g>
          <g transform="translate(-870 -206)">
            <circle id="Ellipse_14-132" data-name="Ellipse 14" cx="6.5" cy="6.5" r="6.5" transform="translate(960 341)" fill="#a2a2a2"/>
          </g>
          <g transform="translate(-852 -206)">
            <circle id="Ellipse_14-133" data-name="Ellipse 14" cx="6.5" cy="6.5" r="6.5" transform="translate(960 341)" fill="#a2a2a2"/>
          </g>
          <g transform="translate(-834 -206)">
            <circle id="Ellipse_14-134" data-name="Ellipse 14" cx="6.5" cy="6.5" r="6.5" transform="translate(960 341)" fill="#a2a2a2"/>
          </g>
          <g transform="translate(-816 -206)">
            <circle id="Ellipse_14-135" data-name="Ellipse 14" cx="6.5" cy="6.5" r="6.5" transform="translate(960 341)" fill="#a2a2a2"/>
          </g>
          <g transform="translate(-798 -206)">
            <circle id="Ellipse_14-136" data-name="Ellipse 14" cx="6.5" cy="6.5" r="6.5" transform="translate(960 341)" fill="#a2a2a2"/>
          </g>
          <g transform="translate(-780 -206)">
            <circle id="Ellipse_14-137" data-name="Ellipse 14" cx="6.5" cy="6.5" r="6.5" transform="translate(960 341)" fill="#a2a2a2"/>
          </g>
          <g transform="translate(-762 -206)">
            <circle id="Ellipse_14-138" data-name="Ellipse 14" cx="6.5" cy="6.5" r="6.5" transform="translate(960 341)" fill="#a2a2a2"/>
          </g>
          <g transform="translate(-744 -206)">
            <circle id="Ellipse_14-139" data-name="Ellipse 14" cx="6.5" cy="6.5" r="6.5" transform="translate(960 341)" fill="#a2a2a2"/>
          </g>
          <g transform="translate(-726 -206)">
            <circle id="Ellipse_14-140" data-name="Ellipse 14" cx="6.5" cy="6.5" r="6.5" transform="translate(960 341)" fill="#a2a2a2"/>
          </g>
          <g transform="translate(-960 -191)">
            <circle id="Ellipse_14-141" data-name="Ellipse 14" cx="6.5" cy="6.5" r="6.5" transform="translate(960 341)" fill="#a2a2a2"/>
          </g>
          <g transform="translate(-942 -191)">
            <circle id="Ellipse_14-142" data-name="Ellipse 14" cx="6.5" cy="6.5" r="6.5" transform="translate(960 341)" fill="#a2a2a2"/>
          </g>
          <g transform="translate(-924 -191)">
            <circle id="Ellipse_14-143" data-name="Ellipse 14" cx="6.5" cy="6.5" r="6.5" transform="translate(960 341)" fill="#a2a2a2"/>
          </g>
          <g transform="translate(-906 -191)">
            <circle id="Ellipse_14-144" data-name="Ellipse 14" cx="6.5" cy="6.5" r="6.5" transform="translate(960 341)" fill="#a2a2a2"/>
          </g>
          <g transform="translate(-888 -191)">
            <circle id="Ellipse_14-145" data-name="Ellipse 14" cx="6.5" cy="6.5" r="6.5" transform="translate(960 341)" fill="#a2a2a2"/>
          </g>
          <g transform="translate(-870 -191)">
            <circle id="Ellipse_14-146" data-name="Ellipse 14" cx="6.5" cy="6.5" r="6.5" transform="translate(960 341)" fill="#a2a2a2"/>
          </g>
          <g transform="translate(-852 -191)">
            <circle id="Ellipse_14-147" data-name="Ellipse 14" cx="6.5" cy="6.5" r="6.5" transform="translate(960 341)" fill="#a2a2a2"/>
          </g>
          <g transform="translate(-834 -191)">
            <circle id="Ellipse_14-148" data-name="Ellipse 14" cx="6.5" cy="6.5" r="6.5" transform="translate(960 341)" fill="#a2a2a2"/>
          </g>
          <g transform="translate(-816 -191)">
            <circle id="Ellipse_14-149" data-name="Ellipse 14" cx="6.5" cy="6.5" r="6.5" transform="translate(960 341)" fill="#a2a2a2"/>
          </g>
          <g transform="translate(-798 -191)">
            <circle id="Ellipse_14-150" data-name="Ellipse 14" cx="6.5" cy="6.5" r="6.5" transform="translate(960 341)" fill="#a2a2a2"/>
          </g>
          <g transform="translate(-780 -191)">
            <circle id="Ellipse_14-151" data-name="Ellipse 14" cx="6.5" cy="6.5" r="6.5" transform="translate(960 341)" fill="#a2a2a2"/>
          </g>
          <g transform="translate(-762 -191)">
            <circle id="Ellipse_14-152" data-name="Ellipse 14" cx="6.5" cy="6.5" r="6.5" transform="translate(960 341)" fill="#a2a2a2"/>
          </g>
          <g transform="translate(-744 -191)">
            <circle id="Ellipse_14-153" data-name="Ellipse 14" cx="6.5" cy="6.5" r="6.5" transform="translate(960 341)" fill="#a2a2a2"/>
          </g>
          <g transform="translate(-726 -191)">
            <circle id="Ellipse_14-154" data-name="Ellipse 14" cx="6.5" cy="6.5" r="6.5" transform="translate(960 341)" fill="#a2a2a2"/>
          </g>
          <g transform="translate(-960 -176)">
            <circle id="Ellipse_14-155" data-name="Ellipse 14" cx="6.5" cy="6.5" r="6.5" transform="translate(960 341)" fill="#a2a2a2"/>
          </g>
          <g transform="translate(-942 -176)">
            <circle id="Ellipse_14-156" data-name="Ellipse 14" cx="6.5" cy="6.5" r="6.5" transform="translate(960 341)" fill="#a2a2a2"/>
          </g>
          <g transform="translate(-924 -176)">
            <circle id="Ellipse_14-157" data-name="Ellipse 14" cx="6.5" cy="6.5" r="6.5" transform="translate(960 341)" fill="#a2a2a2"/>
          </g>
          <g transform="translate(-906 -176)">
            <circle id="Ellipse_14-158" data-name="Ellipse 14" cx="6.5" cy="6.5" r="6.5" transform="translate(960 341)" fill="#a2a2a2"/>
          </g>
          <g transform="translate(-888 -176)">
            <circle id="Ellipse_14-159" data-name="Ellipse 14" cx="6.5" cy="6.5" r="6.5" transform="translate(960 341)" fill="#a2a2a2"/>
          </g>
          <g transform="translate(-870 -176)">
            <circle id="Ellipse_14-160" data-name="Ellipse 14" cx="6.5" cy="6.5" r="6.5" transform="translate(960 341)" fill="#a2a2a2"/>
          </g>
          <g transform="translate(-852 -176)">
            <circle id="Ellipse_14-161" data-name="Ellipse 14" cx="6.5" cy="6.5" r="6.5" transform="translate(960 341)" fill="#a2a2a2"/>
          </g>
          <g transform="translate(-834 -176)">
            <circle id="Ellipse_14-162" data-name="Ellipse 14" cx="6.5" cy="6.5" r="6.5" transform="translate(960 341)" fill="#a2a2a2"/>
          </g>
          <g transform="translate(-816 -176)">
            <circle id="Ellipse_14-163" data-name="Ellipse 14" cx="6.5" cy="6.5" r="6.5" transform="translate(960 341)" fill="#a2a2a2"/>
          </g>
          <g transform="translate(-798 -176)">
            <circle id="Ellipse_14-164" data-name="Ellipse 14" cx="6.5" cy="6.5" r="6.5" transform="translate(960 341)" fill="#a2a2a2"/>
          </g>
          <g transform="translate(-780 -176)">
            <circle id="Ellipse_14-165" data-name="Ellipse 14" cx="6.5" cy="6.5" r="6.5" transform="translate(960 341)" fill="#a2a2a2"/>
          </g>
          <g transform="translate(-762 -176)">
            <circle id="Ellipse_14-166" data-name="Ellipse 14" cx="6.5" cy="6.5" r="6.5" transform="translate(960 341)" fill="#a2a2a2"/>
          </g>
          <g transform="translate(-744 -176)">
            <circle id="Ellipse_14-167" data-name="Ellipse 14" cx="6.5" cy="6.5" r="6.5" transform="translate(960 341)" fill="#a2a2a2"/>
          </g>
          <g transform="translate(-726 -176)">
            <circle id="Ellipse_14-168" data-name="Ellipse 14" cx="6.5" cy="6.5" r="6.5" transform="translate(960 341)" fill="#a2a2a2"/>
          </g>
          <g transform="translate(-960 -161)">
            <circle id="Ellipse_14-169" data-name="Ellipse 14" cx="6.5" cy="6.5" r="6.5" transform="translate(960 341)" fill="#a2a2a2"/>
          </g>
          <g transform="translate(-942 -161)">
            <circle id="Ellipse_14-170" data-name="Ellipse 14" cx="6.5" cy="6.5" r="6.5" transform="translate(960 341)" fill="#a2a2a2"/>
          </g>
          <g transform="translate(-924 -161)">
            <circle id="Ellipse_14-171" data-name="Ellipse 14" cx="6.5" cy="6.5" r="6.5" transform="translate(960 341)" fill="#a2a2a2"/>
          </g>
          <g transform="translate(-906 -161)">
            <circle id="Ellipse_14-172" data-name="Ellipse 14" cx="6.5" cy="6.5" r="6.5" transform="translate(960 341)" fill="#a2a2a2"/>
          </g>
          <g transform="translate(-888 -161)">
            <circle id="Ellipse_14-173" data-name="Ellipse 14" cx="6.5" cy="6.5" r="6.5" transform="translate(960 341)" fill="#a2a2a2"/>
          </g>
          <g transform="translate(-870 -161)">
            <circle id="Ellipse_14-174" data-name="Ellipse 14" cx="6.5" cy="6.5" r="6.5" transform="translate(960 341)" fill="#a2a2a2"/>
          </g>
          <g transform="translate(-852 -161)">
            <circle id="Ellipse_14-175" data-name="Ellipse 14" cx="6.5" cy="6.5" r="6.5" transform="translate(960 341)" fill="#a2a2a2"/>
          </g>
          <g transform="translate(-834 -161)">
            <circle id="Ellipse_14-176" data-name="Ellipse 14" cx="6.5" cy="6.5" r="6.5" transform="translate(960 341)" fill="#a2a2a2"/>
          </g>
          <g transform="translate(-816 -161)">
            <circle id="Ellipse_14-177" data-name="Ellipse 14" cx="6.5" cy="6.5" r="6.5" transform="translate(960 341)" fill="#a2a2a2"/>
          </g>
          <g transform="translate(-798 -161)">
            <circle id="Ellipse_14-178" data-name="Ellipse 14" cx="6.5" cy="6.5" r="6.5" transform="translate(960 341)" fill="#a2a2a2"/>
          </g>
          <g transform="translate(-780 -161)">
            <circle id="Ellipse_14-179" data-name="Ellipse 14" cx="6.5" cy="6.5" r="6.5" transform="translate(960 341)" fill="#a2a2a2"/>
          </g>
          <g transform="translate(-762 -161)">
            <circle id="Ellipse_14-180" data-name="Ellipse 14" cx="6.5" cy="6.5" r="6.5" transform="translate(960 341)" fill="#a2a2a2"/>
          </g>
          <g transform="translate(-744 -161)">
            <circle id="Ellipse_14-181" data-name="Ellipse 14" cx="6.5" cy="6.5" r="6.5" transform="translate(960 341)" fill="#a2a2a2"/>
          </g>
          <g transform="translate(-726 -161)">
            <circle id="Ellipse_14-182" data-name="Ellipse 14" cx="6.5" cy="6.5" r="6.5" transform="translate(960 341)" fill="#a2a2a2"/>
          </g>
          <g transform="translate(-960 -146)">
            <circle id="Ellipse_14-183" data-name="Ellipse 14" cx="6.5" cy="6.5" r="6.5" transform="translate(960 341)" fill="#a2a2a2"/>
          </g>
          <g transform="translate(-942 -146)">
            <circle id="Ellipse_14-184" data-name="Ellipse 14" cx="6.5" cy="6.5" r="6.5" transform="translate(960 341)" fill="#a2a2a2"/>
          </g>
          <g transform="translate(-924 -146)">
            <circle id="Ellipse_14-185" data-name="Ellipse 14" cx="6.5" cy="6.5" r="6.5" transform="translate(960 341)" fill="#a2a2a2"/>
          </g>
          <g transform="translate(-906 -146)">
            <circle id="Ellipse_14-186" data-name="Ellipse 14" cx="6.5" cy="6.5" r="6.5" transform="translate(960 341)" fill="#a2a2a2"/>
          </g>
          <g transform="translate(-888 -146)">
            <circle id="Ellipse_14-187" data-name="Ellipse 14" cx="6.5" cy="6.5" r="6.5" transform="translate(960 341)" fill="#a2a2a2"/>
          </g>
          <g transform="translate(-870 -146)">
            <circle id="Ellipse_14-188" data-name="Ellipse 14" cx="6.5" cy="6.5" r="6.5" transform="translate(960 341)" fill="#a2a2a2"/>
          </g>
          <g transform="translate(-852 -146)">
            <circle id="Ellipse_14-189" data-name="Ellipse 14" cx="6.5" cy="6.5" r="6.5" transform="translate(960 341)" fill="#a2a2a2"/>
          </g>
          <g transform="translate(-834 -146)">
            <circle id="Ellipse_14-190" data-name="Ellipse 14" cx="6.5" cy="6.5" r="6.5" transform="translate(960 341)" fill="#a2a2a2"/>
          </g>
          <g transform="translate(-816 -146)">
            <circle id="Ellipse_14-191" data-name="Ellipse 14" cx="6.5" cy="6.5" r="6.5" transform="translate(960 341)" fill="#a2a2a2"/>
          </g>
          <g transform="translate(-798 -146)">
            <circle id="Ellipse_14-192" data-name="Ellipse 14" cx="6.5" cy="6.5" r="6.5" transform="translate(960 341)" fill="#a2a2a2"/>
          </g>
          <g transform="translate(-780 -146)">
            <circle id="Ellipse_14-193" data-name="Ellipse 14" cx="6.5" cy="6.5" r="6.5" transform="translate(960 341)" fill="#a2a2a2"/>
          </g>
          <g transform="translate(-762 -146)">
            <circle id="Ellipse_14-194" data-name="Ellipse 14" cx="6.5" cy="6.5" r="6.5" transform="translate(960 341)" fill="#a2a2a2"/>
          </g>
          <g transform="translate(-744 -146)">
            <circle id="Ellipse_14-195" data-name="Ellipse 14" cx="6.5" cy="6.5" r="6.5" transform="translate(960 341)" fill="#a2a2a2"/>
          </g>
          <g transform="translate(-726 -146)">
            <circle id="Ellipse_14-196" data-name="Ellipse 14" cx="6.5" cy="6.5" r="6.5" transform="translate(960 341)" fill="#a2a2a2"/>
          </g>
          <g transform="translate(-960 -131)">
            <circle id="Ellipse_14-197" data-name="Ellipse 14" cx="6.5" cy="6.5" r="6.5" transform="translate(960 341)" fill="#a2a2a2"/>
          </g>
          <g transform="translate(-942 -131)">
            <circle id="Ellipse_14-198" data-name="Ellipse 14" cx="6.5" cy="6.5" r="6.5" transform="translate(960 341)" fill="#a2a2a2"/>
          </g>
          <g transform="translate(-924 -131)">
            <circle id="Ellipse_14-199" data-name="Ellipse 14" cx="6.5" cy="6.5" r="6.5" transform="translate(960 341)" fill="#a2a2a2"/>
          </g>
          <g transform="translate(-906 -131)">
            <circle id="Ellipse_14-200" data-name="Ellipse 14" cx="6.5" cy="6.5" r="6.5" transform="translate(960 341)" fill="#a2a2a2"/>
          </g>
          <g transform="translate(-888 -131)">
            <circle id="Ellipse_14-201" data-name="Ellipse 14" cx="6.5" cy="6.5" r="6.5" transform="translate(960 341)" fill="#a2a2a2"/>
          </g>
          <g transform="translate(-870 -131)">
            <circle id="Ellipse_14-202" data-name="Ellipse 14" cx="6.5" cy="6.5" r="6.5" transform="translate(960 341)" fill="#a2a2a2"/>
          </g>
          <g transform="translate(-852 -131)">
            <circle id="Ellipse_14-203" data-name="Ellipse 14" cx="6.5" cy="6.5" r="6.5" transform="translate(960 341)" fill="#a2a2a2"/>
          </g>
          <g transform="translate(-834 -131)">
            <circle id="Ellipse_14-204" data-name="Ellipse 14" cx="6.5" cy="6.5" r="6.5" transform="translate(960 341)" fill="#a2a2a2"/>
          </g>
          <g transform="translate(-816 -131)">
            <circle id="Ellipse_14-205" data-name="Ellipse 14" cx="6.5" cy="6.5" r="6.5" transform="translate(960 341)" fill="#a2a2a2"/>
          </g>
          <g transform="translate(-798 -131)">
            <circle id="Ellipse_14-206" data-name="Ellipse 14" cx="6.5" cy="6.5" r="6.5" transform="translate(960 341)" fill="#a2a2a2"/>
          </g>
          <g transform="translate(-780 -131)">
            <circle id="Ellipse_14-207" data-name="Ellipse 14" cx="6.5" cy="6.5" r="6.5" transform="translate(960 341)" fill="#a2a2a2"/>
          </g>
          <g transform="translate(-762 -131)">
            <circle id="Ellipse_14-208" data-name="Ellipse 14" cx="6.5" cy="6.5" r="6.5" transform="translate(960 341)" fill="#a2a2a2"/>
          </g>
          <g transform="translate(-744 -131)">
            <circle id="Ellipse_14-209" data-name="Ellipse 14" cx="6.5" cy="6.5" r="6.5" transform="translate(960 341)" fill="#a2a2a2"/>
          </g>
          <g transform="translate(-726 -131)">
            <circle id="Ellipse_14-210" data-name="Ellipse 14" cx="6.5" cy="6.5" r="6.5" transform="translate(960 341)" fill="#a2a2a2"/>
          </g>
        </g>
      </g>
      <path id="Rectangle_4" data-name="Rectangle 4" d="M0,0H101a60,60,0,0,1,60,60V164a0,0,0,0,1,0,0H0a0,0,0,0,1,0,0V0A0,0,0,0,1,0,0Z" transform="translate(749 304)" fill="#fff"/>
    </g>
    <g id="wireframe-2" data-name="wireframe" transform="translate(201 295)">
      <path id="Path_1" data-name="Path 1" d="M302,40a10,10,0,1,0,10,10A10,10,0,0,0,302,40Zm0,0" fill="#3c00c7"/>
      <path id="Path_2" data-name="Path 2" d="M382,40H342a10,10,0,0,0,0,20h40a10,10,0,0,0,0-20Zm0,0" fill="#3c00c7"/>
      <path id="Path_3" data-name="Path 3" d="M462,40H422a10,10,0,0,0,0,20h40a10,10,0,0,0,0-20Zm0,0" fill="#3c00c7"/>
      <path id="Path_4" data-name="Path 4" d="M482,0H30A30.033,30.033,0,0,0,0,30V482a30.033,30.033,0,0,0,30,30H482a30.033,30.033,0,0,0,30-30V30A30.033,30.033,0,0,0,482,0Zm10,482a10.009,10.009,0,0,1-10,10H30a10.009,10.009,0,0,1-10-10V100H492Zm0-402H20V30A10.009,10.009,0,0,1,30,20H482a10.009,10.009,0,0,1,10,10Zm0,0" fill="#3c00c7"/>
      <path id="Path_5" data-name="Path 5" d="M76,226H436a10,10,0,0,0,10-10V156a10,10,0,0,0-10-10H76a10,10,0,0,0-10,10v60A10,10,0,0,0,76,226Zm10-60H426v40H86Zm0,0" fill="#3c00c7"/>
      <path id="Path_6" data-name="Path 6" d="M76,449H196a10,10,0,0,0,10-10V279a10,10,0,0,0-10-10H76a10,10,0,0,0-10,10V439A10,10,0,0,0,76,449ZM86,289H186V429H86Zm0,0" fill="#3c00c7"/>
      <path id="Path_7" data-name="Path 7" d="M436,269H256c-.1,0-.191.012-.289.016A10.007,10.007,0,0,0,246,279V439c0,.059.008.117.008.176A10.011,10.011,0,0,0,256,449H436a10,10,0,0,0,9.992-9.824c0-.059.008-.117.008-.176V279A10.024,10.024,0,0,0,436,269Zm-26.3,20L346,345.621,282.3,289ZM266,301.27,330.949,359,266,416.73ZM282.3,429,346,372.378,409.7,429ZM426,416.73,361.051,359,426,301.269Zm0,0" fill="#fc4343"/>
    </g>
  </g>
</svg>
